<?xml version="1.0" encoding="UTF-8" standalone="no"?>
<!DOCTYPE svg PUBLIC "-//W3C//DTD SVG 1.1//EN"
 "http://www.w3.org/Graphics/SVG/1.1/DTD/svg11.dtd">
<!-- Generated by graphviz version 12.1.1 (20240910.0053)
 -->
<!-- Title: INFRA Pages: 1 -->
<svg width="1345pt" height="404pt"
 viewBox="0.00 0.00 1344.56 404.00" xmlns="http://www.w3.org/2000/svg" xmlns:xlink="http://www.w3.org/1999/xlink">
<g id="graph0" class="graph" transform="scale(1 1) rotate(0) translate(4 400)">
<title>INFRA</title>
<polygon fill="white" stroke="none" points="-4,4 -4,-400 1340.56,-400 1340.56,4 -4,4"/>
<!-- aws_vpc.main -->
<g id="node1" class="node">
<title>aws_vpc.main</title>
<path fill="#e6e6e6" stroke="black" stroke-width="2" d="M765.15,-72C765.15,-72 660.36,-72 660.36,-72 654.36,-72 648.36,-66 648.36,-60 648.36,-60 648.36,-12 648.36,-12 648.36,-6 654.36,0 660.36,0 660.36,0 765.15,0 765.15,0 771.15,0 777.15,-6 777.15,-12 777.15,-12 777.15,-60 777.15,-60 777.15,-66 771.15,-72 765.15,-72"/>
<text text-anchor="middle" x="712.76" y="-40.2" font-family="Arial" font-size="14.00">aws_vpc.main</text>
<text text-anchor="middle" x="712.76" y="-23.4" font-family="Arial" font-size="14.00">(AWS::EC2::VPC)</text>
</g>
<!-- aws_vpc_ipv4_cidr_block_association.main -->
<g id="node2" class="node">
<title>aws_vpc_ipv4_cidr_block_association.main</title>
<path fill="#e6e6e6" stroke="black" stroke-width="2" d="M298.16,-180C298.16,-180 35.35,-180 35.35,-180 29.35,-180 23.35,-174 23.35,-168 23.35,-168 23.35,-120 23.35,-120 23.35,-114 29.35,-108 35.35,-108 35.35,-108 298.16,-108 298.16,-108 304.16,-108 310.16,-114 310.16,-120 310.16,-120 310.16,-168 310.16,-168 310.16,-174 304.16,-180 298.16,-180"/>
<text text-anchor="middle" x="166.76" y="-148.2" font-family="Arial" font-size="14.00">aws_vpc_ipv4_cidr_block_association.main</text>
<text text-anchor="middle" x="166.76" y="-131.4" font-family="Arial" font-size="14.00">(AWS::EC2::VPCCidrBlock)</text>
</g>
<!-- aws_vpc_ipv4_cidr_block_association.main&#45;&gt;aws_vpc.main -->
<g id="edge1" class="edge">
<title>aws_vpc_ipv4_cidr_block_association.main&#45;&gt;aws_vpc.main</title>
<path fill="none" stroke="black" d="M310.32,-109.75C313.16,-109.15 315.97,-108.57 318.76,-108 429.14,-85.36 557.73,-62.92 637.2,-49.51"/>
<polygon fill="black" stroke="black" points="637.31,-53.04 646.59,-47.93 636.14,-46.13 637.31,-53.04"/>
</g>
<!-- aws_internet_gateway.main -->
<g id="node3" class="node">
<title>aws_internet_gateway.main</title>
<path fill="#e78f81" stroke="black" stroke-width="2" d="M802.12,-180C802.12,-180 623.39,-180 623.39,-180 617.39,-180 611.39,-174 611.39,-168 611.39,-168 611.39,-120 611.39,-120 611.39,-114 617.39,-108 623.39,-108 623.39,-108 802.12,-108 802.12,-108 808.12,-108 814.12,-114 814.12,-120 814.12,-120 814.12,-168 814.12,-168 814.12,-174 808.12,-180 802.12,-180"/>
<text text-anchor="middle" x="712.76" y="-148.2" font-family="Arial" font-size="14.00">aws_internet_gateway.main</text>
<text text-anchor="middle" x="712.76" y="-131.4" font-family="Arial" font-size="14.00">(AWS::EC2::InternetGateway)</text>
</g>
<!-- aws_internet_gateway.main&#45;&gt;aws_vpc.main -->
<g id="edge2" class="edge">
<title>aws_internet_gateway.main&#45;&gt;aws_vpc.main</title>
<path fill="none" stroke="black" d="M712.76,-107.7C712.76,-99.93 712.76,-91.57 712.76,-83.43"/>
<polygon fill="black" stroke="black" points="716.26,-83.66 712.76,-73.66 709.26,-83.66 716.26,-83.66"/>
</g>
<!-- aws_subnet.public -->
<g id="node4" class="node">
<title>aws_subnet.public</title>
<path fill="#e6e6e6" stroke="black" stroke-width="2" d="M226.94,-288C226.94,-288 106.57,-288 106.57,-288 100.57,-288 94.57,-282 94.57,-276 94.57,-276 94.57,-228 94.57,-228 94.57,-222 100.57,-216 106.57,-216 106.57,-216 226.94,-216 226.94,-216 232.94,-216 238.94,-222 238.94,-228 238.94,-228 238.94,-276 238.94,-276 238.94,-282 232.94,-288 226.94,-288"/>
<text text-anchor="middle" x="166.76" y="-256.2" font-family="Arial" font-size="14.00">aws_subnet.public</text>
<text text-anchor="middle" x="166.76" y="-239.4" font-family="Arial" font-size="14.00">(AWS::EC2::Subnet)</text>
</g>
<!-- aws_subnet.public&#45;&gt;aws_vpc.main -->
<g id="edge3" class="edge">
<title>aws_subnet.public&#45;&gt;aws_vpc.main</title>
<path fill="none" stroke="black" d="M94.4,-235.42C64.4,-225 32.51,-207.89 14.76,-180 -2.43,-153.01 -6.7,-131.74 14.76,-108 55.86,-62.5 464.19,-44.65 636.59,-39.1"/>
<polygon fill="black" stroke="black" points="636.69,-42.6 646.58,-38.79 636.47,-35.61 636.69,-42.6"/>
</g>
<!-- aws_subnet.public&#45;&gt;aws_vpc_ipv4_cidr_block_association.main -->
<g id="edge4" class="edge">
<title>aws_subnet.public&#45;&gt;aws_vpc_ipv4_cidr_block_association.main</title>
<path fill="none" stroke="black" d="M166.76,-215.7C166.76,-207.93 166.76,-199.57 166.76,-191.43"/>
<polygon fill="black" stroke="black" points="170.26,-191.66 166.76,-181.66 163.26,-191.66 170.26,-191.66"/>
</g>
<!-- aws_route_table.public_internet_access -->
<g id="node5" class="node">
<title>aws_route_table.public_internet_access</title>
<path fill="#e6e6e6" stroke="black" stroke-width="2" d="M581.28,-180C581.28,-180 340.23,-180 340.23,-180 334.23,-180 328.23,-174 328.23,-168 328.23,-168 328.23,-120 328.23,-120 328.23,-114 334.23,-108 340.23,-108 340.23,-108 581.28,-108 581.28,-108 587.28,-108 593.28,-114 593.28,-120 593.28,-120 593.28,-168 593.28,-168 593.28,-174 587.28,-180 581.28,-180"/>
<text text-anchor="middle" x="460.76" y="-148.2" font-family="Arial" font-size="14.00">aws_route_table.public_internet_access</text>
<text text-anchor="middle" x="460.76" y="-131.4" font-family="Arial" font-size="14.00">(AWS::EC2::RouteTable)</text>
</g>
<!-- aws_route_table.public_internet_access&#45;&gt;aws_vpc.main -->
<g id="edge5" class="edge">
<title>aws_route_table.public_internet_access&#45;&gt;aws_vpc.main</title>
<path fill="none" stroke="black" d="M545.02,-107.56C574.96,-94.96 608.46,-80.87 637.59,-68.62"/>
<polygon fill="black" stroke="black" points="638.86,-71.88 646.72,-64.78 636.15,-65.43 638.86,-71.88"/>
</g>
<!-- aws_route.public -->
<g id="node6" class="node">
<title>aws_route.public</title>
<path fill="#e6e6e6" stroke="black" stroke-width="2" d="M680.44,-288C680.44,-288 567.07,-288 567.07,-288 561.07,-288 555.07,-282 555.07,-276 555.07,-276 555.07,-228 555.07,-228 555.07,-222 561.07,-216 567.07,-216 567.07,-216 680.44,-216 680.44,-216 686.44,-216 692.44,-222 692.44,-228 692.44,-228 692.44,-276 692.44,-276 692.44,-282 686.44,-288 680.44,-288"/>
<text text-anchor="middle" x="623.76" y="-256.2" font-family="Arial" font-size="14.00">aws_route.public</text>
<text text-anchor="middle" x="623.76" y="-239.4" font-family="Arial" font-size="14.00">(AWS::EC2::Route)</text>
</g>
<!-- aws_route.public&#45;&gt;aws_internet_gateway.main -->
<g id="edge7" class="edge">
<title>aws_route.public&#45;&gt;aws_internet_gateway.main</title>
<path fill="none" stroke="black" d="M653.39,-215.7C660.6,-207.12 668.39,-197.84 675.89,-188.91"/>
<polygon fill="black" stroke="black" points="678.53,-191.21 682.28,-181.3 673.17,-186.71 678.53,-191.21"/>
</g>
<!-- aws_route.public&#45;&gt;aws_route_table.public_internet_access -->
<g id="edge6" class="edge">
<title>aws_route.public&#45;&gt;aws_route_table.public_internet_access</title>
<path fill="none" stroke="black" d="M569.48,-215.7C555.12,-206.37 539.49,-196.2 524.67,-186.56"/>
<polygon fill="black" stroke="black" points="526.63,-183.67 516.34,-181.15 522.82,-189.53 526.63,-183.67"/>
</g>
<!-- aws_route_table_association.public -->
<g id="node7" class="node">
<title>aws_route_table_association.public</title>
<path fill="#e6e6e6" stroke="black" stroke-width="2" d="M585.93,-396C585.93,-396 321.58,-396 321.58,-396 315.58,-396 309.58,-390 309.58,-384 309.58,-384 309.58,-336 309.58,-336 309.58,-330 315.58,-324 321.58,-324 321.58,-324 585.93,-324 585.93,-324 591.93,-324 597.93,-330 597.93,-336 597.93,-336 597.93,-384 597.93,-384 597.93,-390 591.93,-396 585.93,-396"/>
<text text-anchor="middle" x="453.76" y="-364.2" font-family="Arial" font-size="14.00">aws_route_table_association.public</text>
<text text-anchor="middle" x="453.76" y="-347.4" font-family="Arial" font-size="14.00">(AWS::EC2::SubnetRouteTableAssociation)</text>
</g>
<!-- aws_route_table_association.public&#45;&gt;aws_subnet.public -->
<g id="edge8" class="edge">
<title>aws_route_table_association.public&#45;&gt;aws_subnet.public</title>
<path fill="none" stroke="black" d="M357.79,-323.56C322.79,-310.63 283.55,-296.14 249.77,-283.66"/>
<polygon fill="black" stroke="black" points="251.02,-280.39 240.43,-280.21 248.6,-286.96 251.02,-280.39"/>
</g>
<!-- aws_route_table_association.public&#45;&gt;aws_route_table.public_internet_access -->
<g id="edge9" class="edge">
<title>aws_route_table_association.public&#45;&gt;aws_route_table.public_internet_access</title>
<path fill="none" stroke="black" d="M454.91,-323.66C456.09,-287.65 457.92,-231.6 459.22,-191.89"/>
<polygon fill="black" stroke="black" points="462.72,-192.01 459.55,-181.9 455.72,-191.78 462.72,-192.01"/>
</g>
<!-- aws_subnet.private -->
<g id="node8" class="node">
<title>aws_subnet.private</title>
<path fill="#e6e6e6" stroke="black" stroke-width="2" d="M964.94,-180C964.94,-180 844.57,-180 844.57,-180 838.57,-180 832.57,-174 832.57,-168 832.57,-168 832.57,-120 832.57,-120 832.57,-114 838.57,-108 844.57,-108 844.57,-108 964.94,-108 964.94,-108 970.94,-108 976.94,-114 976.94,-120 976.94,-120 976.94,-168 976.94,-168 976.94,-174 970.94,-180 964.94,-180"/>
<text text-anchor="middle" x="904.76" y="-148.2" font-family="Arial" font-size="14.00">aws_subnet.private</text>
<text text-anchor="middle" x="904.76" y="-131.4" font-family="Arial" font-size="14.00">(AWS::EC2::Subnet)</text>
</g>
<!-- aws_subnet.private&#45;&gt;aws_vpc.main -->
<g id="edge10" class="edge">
<title>aws_subnet.private&#45;&gt;aws_vpc.main</title>
<path fill="none" stroke="black" d="M840.56,-107.56C823.26,-98.01 804.42,-87.61 786.64,-77.79"/>
<polygon fill="black" stroke="black" points="788.67,-74.91 778.22,-73.14 785.28,-81.04 788.67,-74.91"/>
</g>
<!-- aws_subnet.database -->
<g id="node9" class="node">
<title>aws_subnet.database</title>
<path fill="#e6e6e6" stroke="black" stroke-width="2" d="M1134.86,-180C1134.86,-180 1006.65,-180 1006.65,-180 1000.65,-180 994.65,-174 994.65,-168 994.65,-168 994.65,-120 994.65,-120 994.65,-114 1000.65,-108 1006.65,-108 1006.65,-108 1134.86,-108 1134.86,-108 1140.86,-108 1146.86,-114 1146.86,-120 1146.86,-120 1146.86,-168 1146.86,-168 1146.86,-174 1140.86,-180 1134.86,-180"/>
<text text-anchor="middle" x="1070.76" y="-148.2" font-family="Arial" font-size="14.00">aws_subnet.database</text>
<text text-anchor="middle" x="1070.76" y="-131.4" font-family="Arial" font-size="14.00">(AWS::EC2::Subnet)</text>
</g>
<!-- aws_subnet.database&#45;&gt;aws_vpc.main -->
<g id="edge11" class="edge">
<title>aws_subnet.database&#45;&gt;aws_vpc.main</title>
<path fill="none" stroke="black" d="M994.49,-111.02C991.55,-109.97 988.63,-108.96 985.76,-108 920.14,-86.07 843.81,-66.72 788.57,-53.79"/>
<polygon fill="black" stroke="black" points="789.47,-50.4 778.94,-51.55 787.89,-57.22 789.47,-50.4"/>
</g>
<!-- aws_ssm_parameter.vpc -->
<g id="node10" class="node">
<title>aws_ssm_parameter.vpc</title>
<path fill="#e6e6e6" stroke="black" stroke-width="2" d="M1324.56,-180C1324.56,-180 1176.95,-180 1176.95,-180 1170.95,-180 1164.95,-174 1164.95,-168 1164.95,-168 1164.95,-120 1164.95,-120 1164.95,-114 1170.95,-108 1176.95,-108 1176.95,-108 1324.56,-108 1324.56,-108 1330.56,-108 1336.56,-114 1336.56,-120 1336.56,-120 1336.56,-168 1336.56,-168 1336.56,-174 1330.56,-180 1324.56,-180"/>
<text text-anchor="middle" x="1250.76" y="-148.2" font-family="Arial" font-size="14.00">aws_ssm_parameter.vpc</text>
<text text-anchor="middle" x="1250.76" y="-131.4" font-family="Arial" font-size="14.00">(AWS::SSM::Parameter)</text>
</g>
<!-- aws_ssm_parameter.vpc&#45;&gt;aws_vpc.main -->
<g id="edge12" class="edge">
<title>aws_ssm_parameter.vpc&#45;&gt;aws_vpc.main</title>
<path fill="none" stroke="black" d="M1164.52,-110.42C1161.57,-109.57 1158.65,-108.76 1155.76,-108 1029.06,-74.85 877.7,-54.62 788.72,-44.63"/>
<polygon fill="black" stroke="black" points="789.22,-41.17 778.89,-43.55 788.45,-48.12 789.22,-41.17"/>
</g>
<!-- aws_ssm_parameter.public_subnets -->
<g id="node11" class="node">
<title>aws_ssm_parameter.public_subnets</title>
<path fill="#e6e6e6" stroke="black" stroke-width="2" d="M276.37,-396C276.37,-396 57.14,-396 57.14,-396 51.14,-396 45.14,-390 45.14,-384 45.14,-384 45.14,-336 45.14,-336 45.14,-330 51.14,-324 57.14,-324 57.14,-324 276.37,-324 276.37,-324 282.37,-324 288.37,-330 288.37,-336 288.37,-336 288.37,-384 288.37,-384 288.37,-390 282.37,-396 276.37,-396"/>
<text text-anchor="middle" x="166.76" y="-364.2" font-family="Arial" font-size="14.00">aws_ssm_parameter.public_subnets</text>
<text text-anchor="middle" x="166.76" y="-347.4" font-family="Arial" font-size="14.00">(AWS::SSM::Parameter)</text>
</g>
<!-- aws_ssm_parameter.public_subnets&#45;&gt;aws_subnet.public -->
<g id="edge13" class="edge">
<title>aws_ssm_parameter.public_subnets&#45;&gt;aws_subnet.public</title>
<path fill="none" stroke="black" d="M166.76,-323.7C166.76,-315.93 166.76,-307.57 166.76,-299.43"/>
<polygon fill="black" stroke="black" points="170.26,-299.66 166.76,-289.66 163.26,-299.66 170.26,-299.66"/>
</g>
<!-- aws_ssm_parameter.private_subnets -->
<g id="node12" class="node">
<title>aws_ssm_parameter.private_subnets</title>
<path fill="#e6e6e6" stroke="black" stroke-width="2" d="M961.09,-288C961.09,-288 736.42,-288 736.42,-288 730.42,-288 724.42,-282 724.42,-276 724.42,-276 724.42,-228 724.42,-228 724.42,-222 730.42,-216 736.42,-216 736.42,-216 961.09,-216 961.09,-216 967.09,-216 973.09,-222 973.09,-228 973.09,-228 973.09,-276 973.09,-276 973.09,-282 967.09,-288 961.09,-288"/>
<text text-anchor="middle" x="848.76" y="-256.2" font-family="Arial" font-size="14.00">aws_ssm_parameter.private_subnets</text>
<text text-anchor="middle" x="848.76" y="-239.4" font-family="Arial" font-size="14.00">(AWS::SSM::Parameter)</text>
</g>
<!-- aws_ssm_parameter.private_subnets&#45;&gt;aws_subnet.private -->
<g id="edge14" class="edge">
<title>aws_ssm_parameter.private_subnets&#45;&gt;aws_subnet.private</title>
<path fill="none" stroke="black" d="M867.4,-215.7C871.7,-207.57 876.33,-198.8 880.82,-190.31"/>
<polygon fill="black" stroke="black" points="883.91,-191.96 885.48,-181.48 877.72,-188.69 883.91,-191.96"/>
</g>
<!-- aws_ssm_parameter.databases_subnets -->
<g id="node13" class="node">
<title>aws_ssm_parameter.databases_subnets</title>
<path fill="#e6e6e6" stroke="black" stroke-width="2" d="M1250.38,-288C1250.38,-288 1003.13,-288 1003.13,-288 997.13,-288 991.13,-282 991.13,-276 991.13,-276 991.13,-228 991.13,-228 991.13,-222 997.13,-216 1003.13,-216 1003.13,-216 1250.38,-216 1250.38,-216 1256.38,-216 1262.38,-222 1262.38,-228 1262.38,-228 1262.38,-276 1262.38,-276 1262.38,-282 1256.38,-288 1250.38,-288"/>
<text text-anchor="middle" x="1126.76" y="-256.2" font-family="Arial" font-size="14.00">aws_ssm_parameter.databases_subnets</text>
<text text-anchor="middle" x="1126.76" y="-239.4" font-family="Arial" font-size="14.00">(AWS::SSM::Parameter)</text>
</g>
<!-- aws_ssm_parameter.databases_subnets&#45;&gt;aws_subnet.database -->
<g id="edge15" class="edge">
<title>aws_ssm_parameter.databases_subnets&#45;&gt;aws_subnet.database</title>
<path fill="none" stroke="black" d="M1108.11,-215.7C1103.81,-207.57 1099.18,-198.8 1094.69,-190.31"/>
<polygon fill="black" stroke="black" points="1097.79,-188.69 1090.03,-181.48 1091.6,-191.96 1097.79,-188.69"/>
</g>
</g>
</svg>
